<mxfile host="app.diagrams.net" modified="2024-05-11T07:02:19.759Z" agent="Mozilla/5.0 (X11; Linux x86_64) AppleWebKit/537.36 (KHTML, like Gecko) Chrome/124.0.0.0 Safari/537.36 Edg/124.0.0.0" etag="CGtnnlK4fb69DoZAxsH9" version="24.2.7" type="device">
  <diagram name="第 1 页" id="x_i_-oTYh357FhNiy-jN">
    <mxGraphModel dx="2203" dy="774" grid="0" gridSize="10" guides="1" tooltips="1" connect="1" arrows="1" fold="1" page="0" pageScale="1" pageWidth="827" pageHeight="1169" math="0" shadow="0">
      <root>
        <mxCell id="0" />
        <mxCell id="1" parent="0" />
        <mxCell id="u_d2pRbgUaOH4Io2uEPG-13" value="Student" style="swimlane;fontStyle=1;align=center;verticalAlign=top;childLayout=stackLayout;horizontal=1;startSize=26;horizontalStack=0;resizeParent=1;resizeParentMax=0;resizeLast=0;collapsible=1;marginBottom=0;whiteSpace=wrap;html=1;" vertex="1" parent="1">
          <mxGeometry x="-1250" y="-324" width="178" height="60" as="geometry" />
        </mxCell>
        <mxCell id="u_d2pRbgUaOH4Io2uEPG-14" value="+ courses: Set&amp;lt;Course&amp;gt;" style="text;strokeColor=none;fillColor=none;align=left;verticalAlign=top;spacingLeft=4;spacingRight=4;overflow=hidden;rotatable=0;points=[[0,0.5],[1,0.5]];portConstraint=eastwest;whiteSpace=wrap;html=1;" vertex="1" parent="u_d2pRbgUaOH4Io2uEPG-13">
          <mxGeometry y="26" width="178" height="26" as="geometry" />
        </mxCell>
        <mxCell id="u_d2pRbgUaOH4Io2uEPG-15" value="" style="line;strokeWidth=1;fillColor=none;align=left;verticalAlign=middle;spacingTop=-1;spacingLeft=3;spacingRight=3;rotatable=0;labelPosition=right;points=[];portConstraint=eastwest;strokeColor=inherit;" vertex="1" parent="u_d2pRbgUaOH4Io2uEPG-13">
          <mxGeometry y="52" width="178" height="8" as="geometry" />
        </mxCell>
        <mxCell id="u_d2pRbgUaOH4Io2uEPG-17" value="Teacher" style="swimlane;fontStyle=1;align=center;verticalAlign=top;childLayout=stackLayout;horizontal=1;startSize=26;horizontalStack=0;resizeParent=1;resizeParentMax=0;resizeLast=0;collapsible=1;marginBottom=0;whiteSpace=wrap;html=1;" vertex="1" parent="1">
          <mxGeometry x="-759" y="-324" width="178" height="60" as="geometry" />
        </mxCell>
        <mxCell id="u_d2pRbgUaOH4Io2uEPG-18" value="+ courses: Set&amp;lt;Course&amp;gt;" style="text;strokeColor=none;fillColor=none;align=left;verticalAlign=top;spacingLeft=4;spacingRight=4;overflow=hidden;rotatable=0;points=[[0,0.5],[1,0.5]];portConstraint=eastwest;whiteSpace=wrap;html=1;" vertex="1" parent="u_d2pRbgUaOH4Io2uEPG-17">
          <mxGeometry y="26" width="178" height="26" as="geometry" />
        </mxCell>
        <mxCell id="u_d2pRbgUaOH4Io2uEPG-19" value="" style="line;strokeWidth=1;fillColor=none;align=left;verticalAlign=middle;spacingTop=-1;spacingLeft=3;spacingRight=3;rotatable=0;labelPosition=right;points=[];portConstraint=eastwest;strokeColor=inherit;" vertex="1" parent="u_d2pRbgUaOH4Io2uEPG-17">
          <mxGeometry y="52" width="178" height="8" as="geometry" />
        </mxCell>
        <mxCell id="u_d2pRbgUaOH4Io2uEPG-20" value="Course" style="swimlane;fontStyle=1;align=center;verticalAlign=top;childLayout=stackLayout;horizontal=1;startSize=26;horizontalStack=0;resizeParent=1;resizeParentMax=0;resizeLast=0;collapsible=1;marginBottom=0;whiteSpace=wrap;html=1;" vertex="1" parent="1">
          <mxGeometry x="-1009" y="-330" width="178" height="72" as="geometry" />
        </mxCell>
        <mxCell id="u_d2pRbgUaOH4Io2uEPG-21" value="+ teacher: Set&amp;lt;Teacher&amp;gt;&lt;div&gt;+ textbook: Textbook&lt;/div&gt;" style="text;strokeColor=none;fillColor=none;align=left;verticalAlign=top;spacingLeft=4;spacingRight=4;overflow=hidden;rotatable=0;points=[[0,0.5],[1,0.5]];portConstraint=eastwest;whiteSpace=wrap;html=1;" vertex="1" parent="u_d2pRbgUaOH4Io2uEPG-20">
          <mxGeometry y="26" width="178" height="38" as="geometry" />
        </mxCell>
        <mxCell id="u_d2pRbgUaOH4Io2uEPG-22" value="" style="line;strokeWidth=1;fillColor=none;align=left;verticalAlign=middle;spacingTop=-1;spacingLeft=3;spacingRight=3;rotatable=0;labelPosition=right;points=[];portConstraint=eastwest;strokeColor=inherit;" vertex="1" parent="u_d2pRbgUaOH4Io2uEPG-20">
          <mxGeometry y="64" width="178" height="8" as="geometry" />
        </mxCell>
        <mxCell id="u_d2pRbgUaOH4Io2uEPG-23" value="Textbook" style="swimlane;fontStyle=1;align=center;verticalAlign=top;childLayout=stackLayout;horizontal=1;startSize=26;horizontalStack=0;resizeParent=1;resizeParentMax=0;resizeLast=0;collapsible=1;marginBottom=0;whiteSpace=wrap;html=1;" vertex="1" parent="1">
          <mxGeometry x="-1009" y="-207" width="178" height="60" as="geometry" />
        </mxCell>
        <mxCell id="u_d2pRbgUaOH4Io2uEPG-24" value="+ course: Course" style="text;strokeColor=none;fillColor=none;align=left;verticalAlign=top;spacingLeft=4;spacingRight=4;overflow=hidden;rotatable=0;points=[[0,0.5],[1,0.5]];portConstraint=eastwest;whiteSpace=wrap;html=1;" vertex="1" parent="u_d2pRbgUaOH4Io2uEPG-23">
          <mxGeometry y="26" width="178" height="26" as="geometry" />
        </mxCell>
        <mxCell id="u_d2pRbgUaOH4Io2uEPG-25" value="" style="line;strokeWidth=1;fillColor=none;align=left;verticalAlign=middle;spacingTop=-1;spacingLeft=3;spacingRight=3;rotatable=0;labelPosition=right;points=[];portConstraint=eastwest;strokeColor=inherit;" vertex="1" parent="u_d2pRbgUaOH4Io2uEPG-23">
          <mxGeometry y="52" width="178" height="8" as="geometry" />
        </mxCell>
        <mxCell id="u_d2pRbgUaOH4Io2uEPG-26" value="" style="endArrow=open;endFill=1;endSize=12;html=1;rounded=0;exitX=1;exitY=0.5;exitDx=0;exitDy=0;entryX=0;entryY=0.5;entryDx=0;entryDy=0;" edge="1" parent="1" source="u_d2pRbgUaOH4Io2uEPG-14" target="u_d2pRbgUaOH4Io2uEPG-21">
          <mxGeometry width="160" relative="1" as="geometry">
            <mxPoint x="-1104" y="-228" as="sourcePoint" />
            <mxPoint x="-960" y="-362" as="targetPoint" />
          </mxGeometry>
        </mxCell>
        <mxCell id="u_d2pRbgUaOH4Io2uEPG-29" value="0..*" style="edgeLabel;html=1;align=center;verticalAlign=middle;resizable=0;points=[];" vertex="1" connectable="0" parent="u_d2pRbgUaOH4Io2uEPG-26">
          <mxGeometry x="-0.1984" y="-1" relative="1" as="geometry">
            <mxPoint x="20" y="14" as="offset" />
          </mxGeometry>
        </mxCell>
        <mxCell id="u_d2pRbgUaOH4Io2uEPG-37" value="" style="endArrow=none;html=1;edgeStyle=orthogonalEdgeStyle;rounded=0;exitX=1;exitY=0.5;exitDx=0;exitDy=0;entryX=0;entryY=0.5;entryDx=0;entryDy=0;" edge="1" parent="1" source="u_d2pRbgUaOH4Io2uEPG-21" target="u_d2pRbgUaOH4Io2uEPG-18">
          <mxGeometry relative="1" as="geometry">
            <mxPoint x="-727" y="-100" as="sourcePoint" />
            <mxPoint x="-789" y="-357" as="targetPoint" />
          </mxGeometry>
        </mxCell>
        <mxCell id="u_d2pRbgUaOH4Io2uEPG-38" value="0..*" style="edgeLabel;resizable=0;html=1;align=left;verticalAlign=bottom;" connectable="0" vertex="1" parent="u_d2pRbgUaOH4Io2uEPG-37">
          <mxGeometry x="-1" relative="1" as="geometry">
            <mxPoint x="4" as="offset" />
          </mxGeometry>
        </mxCell>
        <mxCell id="u_d2pRbgUaOH4Io2uEPG-39" value="1..*" style="edgeLabel;resizable=0;html=1;align=right;verticalAlign=bottom;" connectable="0" vertex="1" parent="u_d2pRbgUaOH4Io2uEPG-37">
          <mxGeometry x="1" relative="1" as="geometry">
            <mxPoint x="-5" as="offset" />
          </mxGeometry>
        </mxCell>
        <mxCell id="u_d2pRbgUaOH4Io2uEPG-40" value="" style="endArrow=open;html=1;endSize=12;startArrow=diamondThin;startSize=14;startFill=0;edgeStyle=orthogonalEdgeStyle;align=left;verticalAlign=bottom;rounded=0;exitX=0.5;exitY=1;exitDx=0;exitDy=0;entryX=0.5;entryY=0;entryDx=0;entryDy=0;" edge="1" parent="1" source="u_d2pRbgUaOH4Io2uEPG-20" target="u_d2pRbgUaOH4Io2uEPG-23">
          <mxGeometry x="0.451" y="17" relative="1" as="geometry">
            <mxPoint x="-1132" y="-49" as="sourcePoint" />
            <mxPoint x="-920" y="-220" as="targetPoint" />
            <mxPoint as="offset" />
          </mxGeometry>
        </mxCell>
        <mxCell id="u_d2pRbgUaOH4Io2uEPG-41" value="0..1" style="edgeLabel;html=1;align=center;verticalAlign=middle;resizable=0;points=[];" vertex="1" connectable="0" parent="u_d2pRbgUaOH4Io2uEPG-40">
          <mxGeometry x="0.4252" y="16" relative="1" as="geometry">
            <mxPoint y="-7" as="offset" />
          </mxGeometry>
        </mxCell>
      </root>
    </mxGraphModel>
  </diagram>
</mxfile>
